<svg xmlns="http://www.w3.org/2000/svg" xmlns:xlink="http://www.w3.org/1999/xlink" id="Layer_1" x="0px" y="0px" viewBox="0 0 215.9 104" style="enable-background:new 0 0 215.9 104;" xml:space="preserve"><style type="text/css">	.st0{fill:#F37021;}	.st1{fill:#034EA2;}	.st2{enable-background:new    ;}</style><g id="logo-svg" transform="translate(0 0.501)">	<path id="Subtraction_1" class="st0" d="M67.2,99.6L67.2,99.6c-12.3,0-23-2.4-30.8-6.8c-3.5-1.9-6.6-4.6-9-7.8  c-2.2-2.9-3.5-6.3-4-9.9c-0.3-2.4-0.1-4.8,0.3-7.2h1.8c-0.2,1.3-0.2,2.5-0.1,3.8C25.8,77.8,29.4,83,36,86.7  c6.7,3.8,16,5.8,26.9,5.8c7.4-0.1,14.7-0.8,22-2.3c6.1-1.2,12.1-2.8,18-4.8h22.8c-5.7,2.7-11.5,5.1-17.5,7.1  c-6.2,2.1-12.5,3.7-18.9,5C82,98.8,74.6,99.6,67.2,99.6z"></path>	<path id="Subtraction_2" class="st0" d="M176.3,33.6H166c-0.1-3.2-1.1-6.4-2.7-9.2c-5.5-9.5-18.9-14.8-37.7-14.8  c-18.4,0-40,5-59.2,13.7c-6.2,2.8-12.2,6.1-18,9.8h-4.3c7.3-5.3,15.1-9.9,23.3-13.7c10-4.6,20.4-8.2,31-10.6  c10-2.4,20.3-3.6,30.6-3.7c4.9,0,9.9,0.4,14.8,1.1c4.4,0.7,8.7,1.8,12.8,3.5c8.1,3.2,13.8,8.1,17.1,14.3  C175.1,27,176.1,30.2,176.3,33.6L176.3,33.6z"></path>	<path id="Path_38" class="st1" d="M22.4,59.8c-9.5,0-13.2-5-13.2-16.1s3.6-16.1,13.2-16.1c3.2,0,6.3,0.5,9.4,1.4l-2.1,4.4  c-2.2-0.6-4.6-0.9-6.9-1c-5.9,0-7.9,2.5-8,11.2s2,11.2,8,11.2c2.5,0,4.9-0.4,7.3-1.1l2.1,4.4C29.1,59.3,25.8,59.8,22.4,59.8  L22.4,59.8z"></path>	<path id="Path_39" class="st1" d="M43.8,36.4c6.4,0,9.9,3.2,9.5,11.8c0,0,0,1.3,0,1.5H39.1c0.3,4.5,1.7,5.9,5.2,5.9  c2.1,0,4.1-0.4,6-1.1l1.8,3.8c-2.6,1-5.3,1.5-8,1.5c-6.8,0-10.2-3.2-10.2-11.7C33.9,40.4,36.8,36.4,43.8,36.4L43.8,36.4z   M39.2,45.7h9.2c-0.2-3.6-1.1-5.1-4.4-5.1C40.8,40.6,39.5,42,39.2,45.7"></path>	<path id="Path_40" class="st1" d="M76.9,42.7v16.5h-5.1V43.4c0-1.9-0.8-2.7-2.8-2.7c-2,0-3.7,0.9-5.9,3.1v15.4H58V37.1h5.1V40  c2.8-2.6,4.8-3.6,7.6-3.6C74.9,36.4,76.9,38.7,76.9,42.7"></path>	<path id="Path_41" class="st1" d="M95.3,59.2c-1.4,0.4-2.9,0.6-4.4,0.6c-4.9,0-7.2-2.1-7.2-6.9V41.1h-3.4v-4h3.4v-6.1h5.1v6.1h5.5  v4h-5.5v11.7c0,2.2,0.8,2.8,3,2.8c0.6,0,1.1,0,1.7-0.1L95.3,59.2z"></path>	<path id="Path_42" class="st1" d="M107.3,36.4c6.4,0,9.9,3.2,9.5,11.8c0,0,0,1.3,0,1.5h-14.2c0.3,4.5,1.7,5.9,5.2,5.9  c2.1,0,4.1-0.4,6-1.1l1.8,3.8c-2.6,1-5.3,1.5-8,1.5c-6.8,0-10.2-3.2-10.2-11.7C97.4,40.4,100.3,36.4,107.3,36.4L107.3,36.4z   M102.7,45.7h9.2c-0.2-3.6-1.1-5.1-4.4-5.1C104.3,40.6,103,42,102.7,45.7"></path>	<path id="Path_43" class="st1" d="M140.4,42.7v16.5h-5.1V43.4c0-1.9-0.8-2.7-2.8-2.7c-2,0-3.7,0.9-5.9,3.1v15.4h-5.1V37.1h5.1V40  c2.8-2.6,4.8-3.6,7.6-3.6C138.4,36.4,140.4,38.7,140.4,42.7"></path>	<path id="Path_44" class="st1" d="M164,42.7v16.5h-5.1V43.4c0-1.9-0.8-2.7-2.8-2.7c-2,0-3.7,0.9-5.9,3.1v15.4h-5.1V37.1h5.1V40  c2.8-2.6,4.8-3.6,7.6-3.6C162,36.4,164,38.7,164,42.7"></path>	<rect id="Rectangle_72" x="168.7" y="37.1" class="st1" width="5.1" height="22.1"></rect>	<path id="Path_45" class="st1" d="M196.7,43.3v15.9h-5.1v-2.7c-2.7,2.4-4.6,3.3-7.3,3.3c-4.2,0-6.2-2.3-6.2-6.5  c0-4.7,2.5-6.7,7.7-7.2l5.8-0.5v-2c0-2.1-0.9-3-3.4-3c-2.4,0.1-4.7,0.6-6.9,1.6l-1.8-3.7c2.9-1.4,6.1-2.1,9.3-2.2  C194.2,36.4,196.7,38.5,196.7,43.3 M186,55.6c1.9,0,3.5-0.8,5.6-2.7v-4l-5,0.5c-2.5,0.2-3.4,1.1-3.4,3.3  C183.1,54.7,184,55.6,186,55.6L186,55.6z"></path>	<rect id="Rectangle_73" x="201.5" y="28.3" class="st1" width="5.1" height="30.9"></rect>	<g class="st2">		<path class="st1" d="M109.6,67.3v2.1h-4.1v11.4h-2.4V69.4h-4.2v-2.1H109.6z"></path>	</g>	<g class="st2">		<path class="st1" d="M117.2,75.8c0,0.1,0,0.3-0.1,0.8H111c0.1,1,0.3,1.6,0.6,2c0.3,0.4,0.9,0.6,1.7,0.6c0.8,0,1.7-0.2,2.6-0.5   l0.8,1.6c-1.2,0.4-2.4,0.7-3.5,0.7c-1.5,0-2.6-0.4-3.4-1.2c-0.7-0.8-1.1-2.1-1.1-3.9c0-1.7,0.3-3,1-3.8c0.7-0.8,1.8-1.3,3.3-1.3   c0.7,0,1.3,0.1,1.8,0.2c0.5,0.2,0.9,0.4,1.3,0.8c0.4,0.4,0.6,0.9,0.8,1.6C117.1,74.1,117.2,74.9,117.2,75.8z M114.5,73.1   c-0.3-0.3-0.7-0.5-1.4-0.5c-0.7,0-1.2,0.2-1.5,0.5c-0.3,0.3-0.5,0.9-0.6,1.7h4C114.9,74,114.8,73.4,114.5,73.1z"></path>		<path class="st1" d="M123.1,81c-1.5,0-2.7-0.4-3.3-1.2s-1-2.1-1-3.9s0.3-3,1-3.9s1.8-1.2,3.4-1.2c1.1,0,2.2,0.2,3.4,0.6l-0.8,1.6   c-0.8-0.3-1.6-0.4-2.4-0.4c-0.9,0-1.5,0.2-1.8,0.7c-0.3,0.4-0.5,1.3-0.5,2.6c0,1.3,0.2,2.1,0.5,2.6c0.3,0.4,0.9,0.7,1.8,0.7   c0.8,0,1.6-0.1,2.4-0.4l0.8,1.6C125.3,80.8,124.2,81,123.1,81z"></path>	</g>	<g class="st2">		<path class="st1" d="M134,70.8c0.9,0,1.6,0.2,2,0.7c0.4,0.5,0.7,1.1,0.7,2v7.2h-2.2v-6.8c0-0.4-0.1-0.7-0.3-0.9   c-0.2-0.2-0.5-0.3-0.9-0.3c-0.4,0-0.9,0.1-1.2,0.3c-0.4,0.2-0.8,0.6-1.3,1v6.7h-2.2V67.3h2.2v5.1c0.6-0.6,1.2-1,1.7-1.2   C132.8,70.9,133.4,70.8,134,70.8z"></path>		<path class="st1" d="M144.2,70.8c1.8,0,2.7,0.9,2.7,2.7v7.2h-2.2v-6.8c0-0.4-0.1-0.7-0.3-0.9c-0.2-0.2-0.5-0.3-0.9-0.3   c-0.4,0-0.9,0.1-1.3,0.3c-0.4,0.2-0.8,0.6-1.3,1v6.7h-2.2v-9.6h2.2v1.3c0.6-0.6,1.2-1,1.7-1.2C143.1,70.9,143.6,70.8,144.2,70.8z"></path>	</g>	<g class="st2">		<path class="st1" d="M153,81c-1.5,0-2.7-0.4-3.4-1.2c-0.7-0.8-1.1-2.1-1.1-3.9c0-1.8,0.3-3,1-3.9c0.7-0.8,1.8-1.2,3.4-1.2   c1.5,0,2.7,0.4,3.4,1.2c0.7,0.8,1.1,2.1,1.1,3.9c0,1.8-0.3,3-1,3.9C155.8,80.6,154.6,81,153,81z M151.3,78.5   c0.3,0.5,0.9,0.7,1.7,0.7s1.4-0.2,1.7-0.7c0.3-0.5,0.5-1.3,0.5-2.6c0-1.2-0.2-2.1-0.5-2.6c-0.3-0.5-0.9-0.7-1.7-0.7   c-0.8,0-1.4,0.2-1.7,0.7c-0.3,0.5-0.5,1.3-0.5,2.6C150.8,77.2,151,78,151.3,78.5z"></path>		<path class="st1" d="M161.6,67.3v13.4h-2.2V67.3H161.6z"></path>	</g>	<g class="st2">		<path class="st1" d="M168,81c-1.5,0-2.7-0.4-3.4-1.2c-0.7-0.8-1.1-2.1-1.1-3.9c0-1.8,0.3-3,1-3.9c0.7-0.8,1.8-1.2,3.4-1.2   c1.5,0,2.7,0.4,3.4,1.2c0.7,0.8,1.1,2.1,1.1,3.9c0,1.8-0.3,3-1,3.9S169.6,81,168,81z M166.3,78.5c0.3,0.5,0.9,0.7,1.7,0.7   s1.4-0.2,1.7-0.7c0.3-0.5,0.5-1.3,0.5-2.6c0-1.2-0.2-2.1-0.5-2.6s-0.9-0.7-1.7-0.7c-0.8,0-1.4,0.2-1.7,0.7   c-0.3,0.5-0.5,1.3-0.5,2.6C165.8,77.2,166,78,166.3,78.5z"></path>	</g>	<g class="st2">		<path class="st1" d="M183.5,71.1v1.6H182c0.3,0.3,0.5,0.9,0.5,1.5c0,1.1-0.3,2-1,2.5c-0.6,0.5-1.7,0.8-3.2,0.8   c-0.6,0-1.2,0-1.6-0.1l-0.4,0.4c-0.1,0.1-0.1,0.2-0.1,0.4c0,0.1,0,0.2,0,0.2c0,0.1,0.1,0.2,0.2,0.2c0.1,0.1,0.2,0.1,0.4,0.1h1.8   c0.7,0,1.2,0,1.7,0.1c0.5,0,0.9,0.1,1.3,0.2c0.4,0.1,0.7,0.3,1,0.5c0.2,0.2,0.4,0.5,0.6,0.8c0.1,0.3,0.2,0.7,0.2,1.2   c0,0.7-0.1,1.3-0.4,1.7c-0.3,0.4-0.8,0.8-1.5,1c-0.7,0.2-1.6,0.3-2.8,0.3c-1.5,0-2.7-0.2-3.5-0.6c-0.8-0.4-1.2-1-1.2-1.9   c0-0.5,0.1-0.9,0.3-1.2c0.2-0.3,0.5-0.6,0.9-0.8c-0.5-0.4-0.8-0.9-0.8-1.6c0-0.5,0.2-0.9,0.6-1.3l0.3-0.3   c-0.7-0.5-1.1-1.4-1.1-2.6c0-1.1,0.3-2,1-2.5s1.7-0.8,3.3-0.8c0.9,0,1.6,0.1,2.2,0.3H183.5z M181.2,81.5c0-0.2,0-0.4-0.1-0.5   c0-0.1-0.2-0.2-0.3-0.3c-0.2-0.1-0.4-0.1-0.8-0.2c-0.3,0-0.8,0-1.4,0h-2c-0.4,0.4-0.6,0.8-0.6,1.3c0,0.3,0.1,0.5,0.2,0.6   c0.1,0.1,0.4,0.2,0.8,0.3c0.4,0.1,1,0.1,1.7,0.1c0.7,0,1.3,0,1.6-0.1c0.4-0.1,0.6-0.2,0.7-0.4C181.1,82.1,181.2,81.8,181.2,81.5z    M178.3,75.7c0.6,0,1,0,1.3-0.1s0.5-0.2,0.6-0.5c0.1-0.2,0.2-0.5,0.2-1c0-0.4,0-0.7-0.1-1c-0.1-0.2-0.3-0.4-0.6-0.5   c-0.3-0.1-0.7-0.1-1.3-0.1c-0.8,0-1.4,0.1-1.6,0.3c-0.3,0.2-0.4,0.6-0.4,1.3c0,0.3,0,0.6,0.1,0.8c0.1,0.2,0.2,0.3,0.3,0.5   c0.2,0.1,0.4,0.2,0.6,0.3C177.5,75.7,177.9,75.7,178.3,75.7z"></path>	</g>	<g class="st2">		<path class="st1" d="M186.1,69.9c-0.5,0-0.9-0.1-1.1-0.3c-0.2-0.2-0.3-0.5-0.3-1s0.1-0.8,0.3-1c0.2-0.2,0.6-0.3,1.1-0.3   c0.5,0,0.8,0.1,1,0.3c0.2,0.2,0.3,0.5,0.3,1s-0.1,0.8-0.3,1C186.9,69.8,186.6,69.9,186.1,69.9z M185,80.7v-9.6h2.2v9.6H185z"></path>	</g>	<g class="st2">		<path class="st1" d="M197.1,75.8c0,0.1,0,0.3-0.1,0.8h-6.1c0.1,1,0.3,1.6,0.6,2c0.3,0.4,0.9,0.6,1.7,0.6c0.8,0,1.7-0.2,2.6-0.5   l0.8,1.6c-1.2,0.4-2.4,0.7-3.5,0.7c-1.5,0-2.6-0.4-3.4-1.2c-0.7-0.8-1.1-2.1-1.1-3.9c0-1.7,0.3-3,1-3.8c0.7-0.8,1.8-1.3,3.3-1.3   c0.7,0,1.3,0.1,1.8,0.2c0.5,0.2,0.9,0.4,1.3,0.8s0.6,0.9,0.8,1.6C197,74.1,197.1,74.9,197.1,75.8z M194.4,73.1   c-0.3-0.3-0.7-0.5-1.4-0.5s-1.2,0.2-1.5,0.5c-0.3,0.3-0.5,0.9-0.6,1.7h4C194.9,74,194.7,73.4,194.4,73.1z"></path>	</g>	<g class="st2">		<path class="st1" d="M202.3,81c-1.3,0-2.6-0.3-3.9-0.9l0.8-1.5c1.1,0.5,2.1,0.7,3,0.7c1.2,0,1.8-0.4,1.8-1.2c0-0.1,0-0.2,0-0.3   c0-0.1-0.1-0.2-0.1-0.2c0-0.1-0.1-0.1-0.2-0.2c-0.1-0.1-0.2-0.1-0.2-0.1c-0.1,0-0.2-0.1-0.3-0.1c-0.1,0-0.3-0.1-0.3-0.1   c-0.1,0-0.2-0.1-0.4-0.1c-0.2-0.1-0.3-0.1-0.5-0.1c-1.2-0.3-2-0.7-2.5-1.1c-0.5-0.4-0.8-1-0.8-1.8c0-0.9,0.3-1.7,1-2.2   c0.6-0.5,1.6-0.8,2.7-0.8c1.1,0,2.3,0.2,3.5,0.7l-0.8,1.6c-0.9-0.3-1.8-0.5-2.6-0.5c-0.6,0-1,0.1-1.2,0.3   c-0.3,0.2-0.4,0.5-0.4,0.9c0,0.3,0.1,0.6,0.3,0.7c0.2,0.1,0.6,0.3,1.3,0.5c1.1,0.3,1.8,0.5,2.2,0.7c0.8,0.4,1.3,1,1.5,1.8   c0,0.2,0,0.3,0,0.5c0,0.9-0.3,1.6-1,2.2C204.5,80.7,203.6,81,202.3,81z"></path>	</g></g></svg>