<?xml version="1.0" encoding="UTF-8"?>
<svg id="Layer_1" width="200px" xmlns="http://www.w3.org/2000/svg" version="1.1" xmlns:xlink="http://www.w3.org/1999/xlink" viewBox="0 0 1415.7 485.5">
  <!-- Generator: Adobe Illustrator 29.5.0, SVG Export Plug-In . SVG Version: 2.1.0 Build 137)  -->
  <defs>
    <style>
      .st0 {
        fill: url(#linear-gradient2);
      }

      .st1 {
        fill: #4c4f56;
      }

      .st2 {
        fill: #fff;
      }

      .st3 {
        mask: url(#mask);
      }

      .st4 {
        fill: url(#linear-gradient1);
      }

      .st5 {
        filter: url(#luminosity-invert-noclip);
      }

      .st6, .st7 {
        fill: none;
      }

      .st8 {
        clip-path: url(#clippath-1);
      }

      .st7 {
        stroke: #000;
        stroke-miterlimit: 10;
        stroke-width: 14.8px;
      }

      .st9 {
        fill: #023cdc;
      }

      .st10 {
        fill: url(#linear-gradient4);
      }

      .st11 {
        fill: url(#linear-gradient5);
      }

      .st12 {
        fill: url(#linear-gradient3);
      }

      .st13 {
        fill: url(#linear-gradient6);
      }

      .st14 {
        fill: url(#linear-gradient);
      }

      .st15 {
        clip-path: url(#clippath);
      }
    </style>
    <linearGradient id="linear-gradient" x1="494.8" y1="214.5" x2="1371.3" y2="214.5" gradientUnits="userSpaceOnUse">
      <stop offset="0" stop-color="#2251f7"/>
      <stop offset=".4" stop-color="#4e50e5"/>
      <stop offset=".6" stop-color="#a34dc0"/>
      <stop offset=".8" stop-color="#f55b4a"/>
      <stop offset="1" stop-color="#f18a35"/>
    </linearGradient>
    <linearGradient id="linear-gradient1" x1="494.8" x2="1371.3" xlink:href="#linear-gradient"/>
    <linearGradient id="linear-gradient2" x1="494.8" x2="1371.3" xlink:href="#linear-gradient"/>
    <linearGradient id="linear-gradient3" x1="494.8" x2="1371.3" xlink:href="#linear-gradient"/>
    <linearGradient id="linear-gradient4" x1="494.8" x2="1371.3" xlink:href="#linear-gradient"/>
    <clipPath id="clippath">
      <path class="st6" d="M197.9,34.4l-124,71.6c-23.3,13.4-37.6,38.3-37.6,65.1v143.2c0,26.9,14.3,51.7,37.6,65.1l124,71.6c23.3,13.4,51.9,13.4,75.2,0l124-71.6c23.3-13.4,37.6-38.3,37.6-65.1v-143.2c0-26.9-14.3-51.7-37.6-65.1l-124-71.6c-23.3-13.4-51.9-13.4-75.2,0Z"/>
    </clipPath>
    <linearGradient id="linear-gradient5" x1="237" y1="537.4" x2="237" y2="101.1" gradientUnits="userSpaceOnUse">
      <stop offset="0" stop-color="#0b56d8"/>
      <stop offset="1" stop-color="#23a8d3"/>
    </linearGradient>
    <filter id="luminosity-invert-noclip" x="36.2" y="24.3" width="398.5" height="545.1" color-interpolation-filters="sRGB" filterUnits="userSpaceOnUse">
      <feColorMatrix result="cm" values="-1 0 0 0 1 0 -1 0 0 1 0 0 -1 0 1 0 0 0 1 0"/>
      <feFlood flood-color="#fff" result="bg"/>
      <feBlend in="cm" in2="bg"/>
    </filter>
    <mask id="mask" x="36.2" y="24.3" width="398.5" height="545.1" maskUnits="userSpaceOnUse">
      <g class="st5">
        <path class="st2" d="M401,273.7c-16-27.9-25.2-45.6-27.3-51.2-.3-2.3-.5-4.7-.8-7-2.8-25.7-5.6-52.3-25.3-80.5-24.8-35.5-61.7-54.6-109.8-57-1.8,0-3.6-.1-5.4-.1h0c-28.8,0-60.2,10.8-84.1,28.8-21.7,16.4-48.6,46.9-53.2,99.3-4.6,52.2,4.9,72.3,18.8,95.1,5.9,9.6,10.9,17.9,14.3,33.5,5.7,26.3-14.2,63.6-22.4,75.8l-.5.7-.5.8-32.3,56.8-14.4,25.4,27.9,8.3,192,57.3,32.4,9.7-2.6-33.7-6.4-82.2-1-56.9h19.8c28.2,0,51.2-22.9,51.3-51v-32.9c.1,0,5.9.2,5.9.2h.4s.5,0,.5,0c9.3,0,17.9-5,22.6-13,4.6-8,4.7-18,0-26.1Z"/>
      </g>
    </mask>
    <linearGradient id="linear-gradient6" x1="235.5" y1="461.2" x2="235.5" y2="24.3" gradientUnits="userSpaceOnUse">
      <stop offset="0" stop-color="#ff6e21"/>
      <stop offset="1" stop-color="#ffb21f"/>
    </linearGradient>
    <clipPath id="clippath-1">
      <path class="st6" d="M197.9,34.4l-124,71.6c-23.3,13.4-37.6,38.3-37.6,65.1v143.2c0,26.9,14.3,51.7,37.6,65.1l124,71.6c23.3,13.4,51.9,13.4,75.2,0l124-71.6c23.3-13.4,37.6-38.3,37.6-65.1v-143.2c0-26.9-14.3-51.7-37.6-65.1l-124-71.6c-23.3-13.4-51.9-13.4-75.2,0Z"/>
    </clipPath>
  </defs>
  <g>
    <g>
      <path class="st14" d="M642.4,253l25.1,21.6c-3.8,5.7-9.5,11.6-17.1,17.7-7.6,6.1-16.6,11.2-27,15.4-10.4,4.2-21.7,6.3-33.9,6.3-18.8,0-35.4-4.3-50-12.8-14.5-8.5-25.9-20.3-34.2-35.2-8.3-14.9-12.4-31.7-12.4-50.5s2.4-26.9,7.1-39c4.7-12.1,11.4-22.8,20.1-32,8.6-9.2,18.9-16.4,30.9-21.6,12-5.2,25.1-7.8,39.6-7.8s34.4,3.7,46.8,11.1c12.4,7.4,22.4,16.4,30,27l-25.3,22.5c-6.1-8.7-13.1-15.8-21.2-21.1-8.1-5.3-18.2-8-30.3-8s-23,3.1-32,9.4c-9,6.3-15.9,14.6-20.8,24.9-4.8,10.3-7.3,21.6-7.3,33.7s2.4,23.2,7.3,33c4.8,9.9,11.6,17.7,20.4,23.6,8.7,5.9,19,8.8,30.7,8.8s19.9-1.6,26.6-4.8c6.7-3.2,12.1-7,16.2-11.2,4.1-4.3,7.6-7.9,10.7-11Z"/>
      <path class="st4" d="M684.3,309.4V119.5h35.9v76.3h94.2v-76.3h35.9v189.9h-35.9v-81.7h-94.2v81.7h-35.9Z"/>
      <path class="st0" d="M865.9,309.4l72-189.9h37l72,189.9h-39.9l-16.5-48.1h-70.6l-16.5,48.1h-37.6ZM930,231.7h50.4l-25.1-73.7-25.3,73.7Z"/>
      <path class="st12" d="M1057.2,309.4l72-189.9h37l72,189.9h-39.9l-16.5-48.1h-70.6l-16.5,48.1h-37.6ZM1121.3,231.7h50.4l-25.1-73.7-25.3,73.7Z"/>
      <path class="st10" d="M1252.8,309.4V119.5h60.9c13.3,0,24.2,2,32.7,6,8.5,4,15.2,9.1,20.1,15.2,4.8,6.2,8.2,12.6,10.1,19.4,1.9,6.7,2.8,13,2.8,18.6,0,10.6-1.9,19.7-5.6,27.3-3.7,7.6-8.7,13.8-14.9,18.6-6.3,4.8-13.1,8.4-20.6,10.7-7.5,2.3-14.9,3.4-22.3,3.4h-28.8v70.6h-34.4ZM1287.3,208.6h25.9c8.9,0,16.1-2.7,21.6-8.1,5.5-5.4,8.3-12.3,8.3-20.6s-2.8-16.2-8.5-21.8c-5.7-5.6-12.8-8.4-21.4-8.4h-25.9v58.9Z"/>
    </g>
    <g>
      <g class="st15">
        <path class="st11" d="M125.1,423.3s35-51.6,25.8-93.7c-11.1-51.3-39.5-43.4-32.7-121.7,7.1-80.9,77.2-108.8,118.5-106.7s69.9,15.6,91.9,47.1c18.3,26.2,19.1,51.3,22.3,78.6s22.5,45.1,30.1,58.3c1.1,2-.3,4.4-2.6,4.3l-15.6-.5c-7.7-.2-14,5.9-14,13.5l-.2,42.8c0,15.5-12.6,27.9-28.1,27.9h-27.1c-9,0-16.2,7.3-16.1,16.3l1.1,64.9,6.5,82.9-192-57.3,32.3-56.8Z"/>
      </g>
      <g class="st3">
        <path class="st13" d="M197.9,34.4l-124,71.6c-23.3,13.4-37.6,38.3-37.6,65.1v143.2c0,26.9,14.3,51.7,37.6,65.1l124,71.6c23.3,13.4,51.9,13.4,75.2,0l124-71.6c23.3-13.4,37.6-38.3,37.6-65.1v-143.2c0-26.9-14.3-51.7-37.6-65.1l-124-71.6c-23.3-13.4-51.9-13.4-75.2,0Z"/>
      </g>
      <g class="st8">
        <g>
          <line class="st7" x1="179.6" y1="457" x2="179.6" y2="242.7"/>
          <circle class="st7" cx="179.6" cy="222.6" r="20.1"/>
          <circle class="st9" cx="280.1" cy="287.6" r="20.1"/>
          <circle class="st7" cx="244.4" cy="179.1" r="20.1"/>
          <circle class="st7" cx="280.1" cy="287.6" r="20.1"/>
          <path class="st7" d="M244.4,199.2v45.9c0,4-1.8,7.7-4.8,10.2l-58.5,48.1"/>
          <path class="st7" d="M263.1,298.4l-35.2,32.4c-2.4,2.2-3.8,5.3-3.8,8.5v135.6"/>
        </g>
      </g>
    </g>
  </g>
  <g>
    <path class="st1" d="M486.4,356h32.4v6.2h-12.4v39.9h-7.6v-39.9h-12.4v-6.2Z"/>
    <path class="st1" d="M534.1,402.1h-7.6v-36.6h7.6v5.3c2.1-3.6,5.8-5.9,11-5.9v7.8h-1.9c-5.6,0-9.1,2.3-9.1,10.1v19.2Z"/>
    <path class="st1" d="M585.6,402.1h-7.6v-4.4c-2.4,3.1-6.6,4.9-10.9,4.9-8.6,0-15.2-5.4-15.2-15.6v-21.5h7.6v20.4c0,6.7,3.7,10.2,9.2,10.2s9.3-3.5,9.3-10.2v-20.4h7.6v36.6Z"/>
    <path class="st1" d="M608.9,402.7c-8.8,0-15-5.2-15.4-11.8h7.9c.3,3,3.1,5.4,7.4,5.4s6.8-1.9,6.8-4.4c0-7.2-21.4-3.1-21.4-16.5s5.5-10.6,14.2-10.6,13.8,4.4,14.2,11.7h-7.6c-.3-3.2-2.7-5.4-6.9-5.4s-6.2,1.7-6.2,4.1c0,7.4,20.8,3.3,21.2,16.5,0,6.2-5.4,10.8-14.1,10.8Z"/>
    <path class="st1" d="M632.5,371.7h-4.3v-6.2h4.3v-9.1h7.7v9.1h9v6.2h-9v20.2c0,2.7,1.1,3.8,4.3,3.8h4.7v6.3h-6c-6.6,0-10.6-2.7-10.6-10.2v-20.2Z"/>
    <path class="st1" d="M672,402.7c-10.6,0-18.4-7.4-18.4-18.9s7.5-18.8,18.4-18.8,17.9,7.2,17.9,18,0,2.5-.3,3.7h-28.1c.5,6,4.9,9.7,10.5,9.7s7.3-2.3,8.7-5.1h8.2c-2.1,6.4-7.9,11.5-16.9,11.5ZM661.6,380.6h20.4c-.1-5.6-4.6-9.2-10.3-9.2s-9.3,3.5-10.1,9.2Z"/>
    <path class="st1" d="M712.3,365c4.8,0,9.9,2.3,12.7,5.7v-17.7h7.7v49.1h-7.7v-5.5c-2.3,3.3-6.8,6.1-12.8,6.1-9.7,0-17.4-7.8-17.4-19s7.7-18.7,17.5-18.7ZM713.8,371.5c-5.7,0-11.2,4.2-11.2,12.1s5.5,12.5,11.2,12.5,11.2-4.4,11.2-12.3-5.4-12.3-11.2-12.3Z"/>
    <path class="st1" d="M788.1,392.7h-19.5l-3.3,9.4h-8l16.6-46.2h8.8l16.6,46.2h-8l-3.3-9.4ZM778.4,365.1l-7.6,21.4h15.2l-7.6-21.4Z"/>
    <path class="st1" d="M821.6,365c6,0,10.5,2.8,12.8,5.9v-5.3h7.7v37.2c0,10-6.5,17.5-18,17.5s-17.1-4.8-18.1-12.9h7.6c1.1,3.8,5.2,6.4,10.5,6.4s10.3-3.6,10.3-10.9v-6.1c-2.3,3.1-6.8,6.1-12.8,6.1-9.7,0-17.4-7.8-17.4-19s7.7-18.7,17.4-18.7ZM823.2,371.5c-5.7,0-11.2,4.2-11.2,12.1s5.5,12.5,11.2,12.5,11.2-4.4,11.2-12.3-5.4-12.3-11.2-12.3Z"/>
    <path class="st1" d="M867.9,402.7c-10.6,0-18.4-7.4-18.4-18.9s7.5-18.8,18.4-18.8,17.9,7.2,17.9,18,0,2.5-.3,3.7h-28.1c.5,6,4.9,9.7,10.5,9.7s7.3-2.3,8.7-5.1h8.2c-2.1,6.4-7.9,11.5-16.9,11.5ZM857.5,380.6h20.4c-.1-5.6-4.6-9.2-10.3-9.2s-9.3,3.5-10.1,9.2Z"/>
    <path class="st1" d="M919.4,381.7c0-6.7-3.7-10.2-9.2-10.2s-9.3,3.5-9.3,10.2v20.4h-7.6v-36.6h7.6v4.2c2.5-3,6.6-4.8,11-4.8,8.6,0,15.1,5.4,15.1,15.6v21.6h-7.6v-20.4Z"/>
    <path class="st1" d="M937.9,371.7h-4.3v-6.2h4.3v-9.1h7.7v9.1h9v6.2h-9v20.2c0,2.7,1.1,3.8,4.3,3.8h4.7v6.3h-6c-6.6,0-10.6-2.7-10.6-10.2v-20.2Z"/>
    <path class="st1" d="M960.6,355.9c0-2.7,2.1-4.8,4.9-4.8s4.8,2.1,4.8,4.8-2.1,4.8-4.8,4.8-4.9-2.1-4.9-4.8ZM961.6,365.6h7.6v36.6h-7.6v-36.6Z"/>
    <path class="st1" d="M994.7,365c9,0,14.9,4.4,17,12.1h-8.2c-1.3-3.5-4.2-5.8-8.8-5.8s-10.2,4.5-10.2,12.5,4.1,12.5,10.2,12.5,7.4-2,8.8-5.8h8.2c-2.1,7.2-8,12.1-17,12.1s-18.1-7.4-18.1-18.9,7.5-18.8,18.1-18.8Z"/>
    <path class="st1" d="M1047.3,392.7h-19.5l-3.3,9.4h-8l16.6-46.2h8.8l16.6,46.2h-8l-3.3-9.4ZM1037.6,365.1l-7.6,21.4h15.2l-7.6-21.4Z"/>
    <path class="st1" d="M1065.9,356h7.6v46.1h-7.6v-46.1Z"/>
    <path class="st1" d="M1117,383.4h-8.4v18.7h-7.6v-46.1h16c11,0,16.4,6.2,16.4,13.7s-4.3,13.7-16.4,13.7ZM1117,377.2c6,0,8.6-2.9,8.6-7.5s-2.7-7.6-8.6-7.6h-8.4v15.1h8.4Z"/>
    <path class="st1" d="M1140.7,353h7.6v49.1h-7.6v-49.1Z"/>
    <path class="st1" d="M1173.2,365c6.2,0,10.5,2.9,12.8,5.9v-5.3h7.7v36.6h-7.7v-5.4c-2.3,3.1-6.8,6-12.9,6-9.6,0-17.3-7.8-17.3-19s7.7-18.7,17.4-18.7ZM1174.8,371.5c-5.7,0-11.2,4.2-11.2,12.1s5.5,12.5,11.2,12.5,11.2-4.4,11.2-12.3-5.4-12.3-11.2-12.3Z"/>
    <path class="st1" d="M1204.9,371.7h-4.3v-6.2h4.3v-9.1h7.7v9.1h9v6.2h-9v20.2c0,2.7,1.1,3.8,4.3,3.8h4.7v6.3h-6c-6.6,0-10.6-2.7-10.6-10.2v-20.2Z"/>
    <path class="st1" d="M1229.5,371.7h-4.3v-6.2h4.3v-2.6c0-8.4,4.3-12.1,14-12.1v6.3c-4.7,0-6.3,1.6-6.3,5.8v2.6h6.8v6.2h-6.8v30.4h-7.7v-30.4Z"/>
    <path class="st1" d="M1266.8,402.7c-10.5,0-18.5-7.4-18.5-18.9s8.3-18.8,18.8-18.8,18.8,7.4,18.8,18.8-8.6,18.9-19.1,18.9ZM1266.8,396.1c5.7,0,11.3-4,11.3-12.3s-5.4-12.3-11.1-12.3-10.9,4-10.9,12.3,4.9,12.3,10.7,12.3Z"/>
    <path class="st1" d="M1301.1,402.1h-7.6v-36.6h7.6v5.3c2.1-3.6,5.8-5.9,11-5.9v7.8h-1.9c-5.6,0-9.1,2.3-9.1,10.1v19.2Z"/>
    <path class="st1" d="M1371.3,381.7c0-6.7-3.7-10.2-9.2-10.2s-9.3,3.5-9.3,10.2v20.4h-7.6v-20.4c0-6.7-3.7-10.2-9.2-10.2s-9.3,3.5-9.3,10.2v20.4h-7.6v-36.6h7.6v4.2c2.5-3,6.5-4.8,10.9-4.8s10.7,2.5,13.2,7.2c2.3-4.4,7.5-7.2,12.8-7.2,8.6,0,15.2,5.4,15.2,15.6v21.6h-7.6v-20.4Z"/>
  </g>
</svg>